<svg width="104" height="129" viewBox="0 0 104 129" fill="none" xmlns="http://www.w3.org/2000/svg">
<rect width="12" height="90" transform="matrix(0 -1 -1 0 104 18)" fill="white"/>
<rect width="12" height="90" transform="matrix(0 -1 -1 0 104 73)" fill="white"/>
<rect width="12" height="90" transform="matrix(0 -1 -1 0 104 123)" fill="white"/>
<rect width="12" height="90" transform="matrix(0 -1 -1 0 104 46)" fill="white"/>
<rect width="12" height="90" transform="matrix(0 -1 -1 0 104 100)" fill="white"/>
<path d="M9.61932 4.45455V19H7.85795V6.30114H7.77273L4.22159 8.65909V6.86932L7.85795 4.45455H9.61932Z" fill="white"/>
<path d="M2.50568 47V45.7216L7.30682 40.4659C7.87027 39.8504 8.33428 39.3153 8.69886 38.8608C9.06345 38.4015 9.33333 37.9706 9.50852 37.5682C9.68845 37.161 9.77841 36.7348 9.77841 36.2898C9.77841 35.7784 9.6553 35.3357 9.40909 34.9616C9.16761 34.5876 8.83617 34.2988 8.41477 34.0952C7.99337 33.8916 7.51989 33.7898 6.99432 33.7898C6.43561 33.7898 5.94792 33.9058 5.53125 34.1378C5.11932 34.3651 4.79972 34.6847 4.57244 35.0966C4.34991 35.5085 4.23864 35.9915 4.23864 36.5455H2.5625C2.5625 35.6932 2.759 34.9451 3.15199 34.3011C3.54498 33.6572 4.08002 33.1553 4.7571 32.7955C5.43892 32.4356 6.2036 32.2557 7.05114 32.2557C7.90341 32.2557 8.65862 32.4356 9.31676 32.7955C9.97491 33.1553 10.491 33.6406 10.8651 34.2514C11.2391 34.8622 11.4261 35.5417 11.4261 36.2898C11.4261 36.8248 11.3291 37.348 11.1349 37.8594C10.9455 38.366 10.6141 38.9318 10.1406 39.5568C9.67188 40.1771 9.02083 40.9347 8.1875 41.8295L4.92045 45.3239V45.4375H11.6818V47H2.50568Z" fill="white"/>
<path d="M6.42045 74.1989C5.48295 74.1989 4.64725 74.0379 3.91335 73.7159C3.18419 73.3939 2.60417 72.9465 2.1733 72.3736C1.74716 71.7959 1.51515 71.1259 1.47727 70.3636H3.26705C3.30492 70.8324 3.46591 71.2372 3.75 71.5781C4.03409 71.9143 4.40578 72.1747 4.86506 72.3594C5.32434 72.544 5.83333 72.6364 6.39205 72.6364C7.01705 72.6364 7.57102 72.5275 8.05398 72.3097C8.53693 72.0919 8.91572 71.7888 9.19034 71.4006C9.46496 71.0123 9.60227 70.5625 9.60227 70.0511C9.60227 69.5161 9.4697 69.045 9.20455 68.6378C8.93939 68.2259 8.55114 67.9039 8.03977 67.6719C7.52841 67.4399 6.90341 67.3239 6.16477 67.3239H5V65.7614H6.16477C6.74242 65.7614 7.24905 65.6572 7.68466 65.4489C8.125 65.2405 8.46828 64.947 8.71449 64.5682C8.96544 64.1894 9.09091 63.7443 9.09091 63.233C9.09091 62.7405 8.98201 62.312 8.7642 61.9474C8.5464 61.5829 8.23864 61.2988 7.84091 61.0952C7.44792 60.8916 6.9839 60.7898 6.44886 60.7898C5.94697 60.7898 5.47349 60.8821 5.02841 61.0668C4.58807 61.2467 4.22822 61.5095 3.94886 61.8551C3.66951 62.196 3.51799 62.608 3.49432 63.0909H1.78977C1.81818 62.3286 2.04782 61.661 2.47869 61.0881C2.90956 60.5104 3.47301 60.0606 4.16903 59.7386C4.86979 59.4167 5.6392 59.2557 6.47727 59.2557C7.37689 59.2557 8.14867 59.438 8.79261 59.8026C9.43655 60.1624 9.93134 60.6383 10.277 61.2301C10.6226 61.822 10.7955 62.4612 10.7955 63.1477C10.7955 63.9669 10.58 64.6652 10.1491 65.2429C9.72301 65.8205 9.14299 66.2206 8.40909 66.4432V66.5568C9.32765 66.7083 10.045 67.099 10.5611 67.7287C11.0772 68.3537 11.3352 69.1278 11.3352 70.0511C11.3352 70.8419 11.1198 71.5521 10.6889 72.1818C10.2628 72.8068 9.6804 73.2992 8.94176 73.6591C8.20313 74.0189 7.36269 74.1989 6.42045 74.1989Z" fill="white"/>
<path d="M1.16477 98.017V96.5682L7.55682 86.4545H8.60795V88.6989H7.89773L3.06818 96.3409V96.4545H11.6761V98.017H1.16477ZM8.01136 101V97.5767V96.902V86.4545H9.6875V101H8.01136Z" fill="white"/>
<path d="M7.05114 124.199C6.2178 124.199 5.46733 124.033 4.79972 123.702C4.1321 123.37 3.59706 122.916 3.1946 122.338C2.79214 121.76 2.57197 121.102 2.53409 120.364H4.23864C4.30492 121.022 4.60322 121.566 5.13352 121.997C5.66856 122.423 6.30777 122.636 7.05114 122.636C7.64773 122.636 8.17803 122.497 8.64205 122.217C9.1108 121.938 9.47775 121.554 9.7429 121.067C10.0128 120.574 10.1477 120.018 10.1477 119.398C10.1477 118.763 10.008 118.197 9.72869 117.7C9.45407 117.198 9.07528 116.803 8.59233 116.514C8.10938 116.225 7.55777 116.079 6.9375 116.074C6.49242 116.069 6.03551 116.138 5.56676 116.28C5.09801 116.417 4.71212 116.595 4.40909 116.812L2.76136 116.614L3.64205 109.455H11.1989V111.017H5.11932L4.60795 115.307H4.69318C4.99148 115.07 5.36553 114.874 5.81534 114.717C6.26515 114.561 6.7339 114.483 7.22159 114.483C8.11174 114.483 8.90483 114.696 9.60085 115.122C10.3016 115.544 10.8509 116.121 11.2486 116.855C11.651 117.589 11.8523 118.427 11.8523 119.369C11.8523 120.297 11.6439 121.126 11.2273 121.855C10.8153 122.58 10.2472 123.152 9.52273 123.574C8.7983 123.991 7.97443 124.199 7.05114 124.199Z" fill="white"/>
</svg>
