<svg width="111" height="146" viewBox="0 0 111 146" fill="none" xmlns="http://www.w3.org/2000/svg">
<rect width="12" height="90" transform="matrix(0 -1 -1 0 111 27)" fill="white"/>
<rect width="12" height="90" transform="matrix(0 -1 -1 0 111 82)" fill="white"/>
<rect width="12" height="90" transform="matrix(0 -1 -1 0 111 132)" fill="white"/>
<rect width="12" height="90" transform="matrix(0 -1 -1 0 111 55)" fill="white"/>
<rect width="12" height="90" transform="matrix(0 -1 -1 0 111 109)" fill="white"/>
<path d="M13.5909 7.72727V31H10.7727V10.6818H10.6364L4.95455 14.4545V11.5909L10.7727 7.72727H13.5909Z" fill="white"/>
<path d="M3.40909 59V56.9545L11.0909 48.5455C11.9924 47.5606 12.7348 46.7045 13.3182 45.9773C13.9015 45.2424 14.3333 44.553 14.6136 43.9091C14.9015 43.2576 15.0455 42.5758 15.0455 41.8636C15.0455 41.0455 14.8485 40.3371 14.4545 39.7386C14.0682 39.1402 13.5379 38.678 12.8636 38.3523C12.1894 38.0265 11.4318 37.8636 10.5909 37.8636C9.69697 37.8636 8.91667 38.0492 8.25 38.4205C7.59091 38.7841 7.07955 39.2955 6.71591 39.9545C6.35985 40.6136 6.18182 41.3864 6.18182 42.2727H3.5C3.5 40.9091 3.81439 39.7121 4.44318 38.6818C5.07197 37.6515 5.92803 36.8485 7.01136 36.2727C8.10227 35.697 9.32576 35.4091 10.6818 35.4091C12.0455 35.4091 13.2538 35.697 14.3068 36.2727C15.3598 36.8485 16.1856 37.625 16.7841 38.6023C17.3826 39.5795 17.6818 40.6667 17.6818 41.8636C17.6818 42.7197 17.5265 43.5568 17.2159 44.375C16.9129 45.1856 16.3826 46.0909 15.625 47.0909C14.875 48.0833 13.8333 49.2955 12.5 50.7273L7.27273 56.3182V56.5H18.0909V59H3.40909Z" fill="white"/>
<path d="M10.2727 86.3182C8.77273 86.3182 7.43561 86.0606 6.26136 85.5455C5.0947 85.0303 4.16667 84.3144 3.47727 83.3977C2.79545 82.4735 2.42424 81.4015 2.36364 80.1818H5.22727C5.28788 80.9318 5.54545 81.5795 6 82.125C6.45455 82.6629 7.04924 83.0795 7.78409 83.375C8.51894 83.6705 9.33333 83.8182 10.2273 83.8182C11.2273 83.8182 12.1136 83.6439 12.8864 83.2955C13.6591 82.947 14.2652 82.4621 14.7045 81.8409C15.1439 81.2197 15.3636 80.5 15.3636 79.6818C15.3636 78.8258 15.1515 78.072 14.7273 77.4205C14.303 76.7614 13.6818 76.2462 12.8636 75.875C12.0455 75.5038 11.0455 75.3182 9.86364 75.3182H8V72.8182H9.86364C10.7879 72.8182 11.5985 72.6515 12.2955 72.3182C13 71.9848 13.5492 71.5152 13.9432 70.9091C14.3447 70.303 14.5455 69.5909 14.5455 68.7727C14.5455 67.9848 14.3712 67.2992 14.0227 66.7159C13.6742 66.1326 13.1818 65.678 12.5455 65.3523C11.9167 65.0265 11.1742 64.8636 10.3182 64.8636C9.51515 64.8636 8.75758 65.0114 8.04545 65.3068C7.34091 65.5947 6.76515 66.0152 6.31818 66.5682C5.87121 67.1136 5.62879 67.7727 5.59091 68.5455H2.86364C2.90909 67.3258 3.27652 66.2576 3.96591 65.3409C4.6553 64.4167 5.55682 63.697 6.67045 63.1818C7.79167 62.6667 9.02273 62.4091 10.3636 62.4091C11.803 62.4091 13.0379 62.7008 14.0682 63.2841C15.0985 63.8598 15.8902 64.6212 16.4432 65.5682C16.9962 66.5152 17.2727 67.5379 17.2727 68.6364C17.2727 69.947 16.928 71.0644 16.2386 71.9886C15.5568 72.9129 14.6288 73.553 13.4545 73.9091V74.0909C14.9242 74.3333 16.072 74.9583 16.8977 75.9659C17.7235 76.9659 18.1364 78.2045 18.1364 79.6818C18.1364 80.947 17.7917 82.0833 17.1023 83.0909C16.4205 84.0909 15.4886 84.8788 14.3068 85.4545C13.125 86.0303 11.7803 86.3182 10.2727 86.3182Z" fill="white"/>
<path d="M1.86364 108.227V105.909L12.0909 89.7273H13.7727V93.3182H12.6364L4.90909 105.545V105.727H18.6818V108.227H1.86364ZM12.8182 113V107.523V106.443V89.7273H15.5V113H12.8182Z" fill="white"/>
<path d="M9.68182 138.318C8.34848 138.318 7.14773 138.053 6.07955 137.523C5.01136 136.992 4.1553 136.265 3.51136 135.341C2.86742 134.417 2.51515 133.364 2.45455 132.182H5.18182C5.28788 133.235 5.76515 134.106 6.61364 134.795C7.4697 135.477 8.49242 135.818 9.68182 135.818C10.6364 135.818 11.4848 135.595 12.2273 135.148C12.9773 134.701 13.5644 134.087 13.9886 133.307C14.4205 132.519 14.6364 131.629 14.6364 130.636C14.6364 129.621 14.4129 128.716 13.9659 127.92C13.5265 127.117 12.9205 126.485 12.1477 126.023C11.375 125.561 10.4924 125.326 9.5 125.318C8.78788 125.311 8.05682 125.42 7.30682 125.648C6.55682 125.867 5.93939 126.152 5.45455 126.5L2.81818 126.182L4.22727 114.727H16.3182V117.227H6.59091L5.77273 124.091H5.90909C6.38636 123.712 6.98485 123.398 7.70455 123.148C8.42424 122.898 9.17424 122.773 9.95455 122.773C11.3788 122.773 12.6477 123.114 13.7614 123.795C14.8826 124.47 15.7614 125.394 16.3977 126.568C17.0417 127.742 17.3636 129.083 17.3636 130.591C17.3636 132.076 17.0303 133.402 16.3636 134.568C15.7045 135.727 14.7955 136.644 13.6364 137.318C12.4773 137.985 11.1591 138.318 9.68182 138.318Z" fill="white"/>
</svg>
